<svg width="64" height="64" viewBox="0 0 64 64" fill="none" xmlns="http://www.w3.org/2000/svg">
<g clip-path="url(#clip0_143_210)">
<path d="M56.8719 20.9993C56.7425 20.8667 56.6091 20.738 56.4719 20.6133C56.3359 20.4903 56.2079 20.3513 56.0719 20.2278C55.9359 20.1043 55.8079 19.9653 55.6719 19.8423C55.5359 19.7188 55.4079 19.5798 55.2719 19.4563C55.1359 19.3328 55.0079 19.1943 54.8719 19.0708C54.7359 18.9473 54.6079 18.8083 54.4719 18.6848C54.3359 18.5613 54.2079 18.4228 54.0719 18.2993C58.0399 22.0593 60.3134 27.1753 60.3999 32.5398C60.3999 45.3223 46.9439 55.7213 30.3999 55.7213C21.1359 55.7213 12.8479 52.4583 7.33594 47.3433L7.73594 47.7293L8.13594 48.1148L8.53594 48.5008L8.93594 48.8863L9.33594 49.2723L9.73594 49.6578L10.1359 50.0433C15.6399 55.3743 24.1119 58.8068 33.5999 58.8068C50.1439 58.8068 63.5999 48.4083 63.5999 35.6643C63.5999 30.2178 61.1679 25.0568 56.8719 20.9993Z" fill="black"/>
<path d="M58.4004 32.54C58.4004 44.2735 45.8644 53.785 30.4004 53.785C14.9364 53.785 2.40039 44.2735 2.40039 32.54C2.40039 25.265 7.20039 18.8395 14.5764 15.0285C21.9524 11.2175 26.5444 7.31396 30.4004 7.31396C34.2564 7.31396 37.5524 10.5 46.2244 15.029C53.6004 18.8385 58.4004 25.265 58.4004 32.54Z" fill="#FBF0DF"/>
<path d="M58.3997 32.5401C58.3956 31.0311 58.1802 29.5302 57.7597 28.0811C55.5757 53.7696 23.0797 55.0041 10.3037 47.3211C16.0467 51.6131 23.1337 53.8931 30.3997 53.7851C45.8397 53.7851 58.3997 44.2581 58.3997 32.5401Z" fill="#F6DECE"/>
<path d="M19.6244 13.617C23.2004 11.5495 27.9524 7.66896 32.6244 7.66146C31.9041 7.43711 31.1548 7.32003 30.4004 7.31396C28.4644 7.31396 26.4004 8.27896 23.8004 9.72897C22.8964 10.238 21.9604 10.801 20.9684 11.3875C19.1044 12.4985 16.9684 13.7555 14.5684 15.013C6.95239 18.986 2.40039 25.5355 2.40039 32.54V33.458C7.24839 16.9415 16.0564 15.6845 19.6244 13.617Z" fill="#FFFEFC"/>
<path d="M28.0958 9.26587C28.1061 11.0917 27.7089 12.8969 26.9333 14.5499C26.1477 16.2207 25.0074 17.7002 23.5918 18.8854C23.3678 19.0784 23.5438 19.4489 23.8318 19.3404C26.5278 18.3304 30.1678 15.3064 28.6318 9.20437C28.5678 8.85687 28.0958 8.94937 28.0958 9.26587ZM29.9118 9.26587C30.8872 10.7965 31.5099 12.5249 31.7348 14.3259C31.9573 16.1194 31.7748 17.9379 31.1998 19.6569C31.1038 19.9269 31.4478 20.1584 31.6398 19.9349C33.3918 17.7749 34.9198 13.4854 30.3438 8.85687C30.1118 8.65687 29.7518 8.96487 29.9118 9.23487V9.26587ZM32.1198 9.13487C33.6428 10.1709 34.9253 11.5223 35.8803 13.0974C36.8226 14.6532 37.4097 16.3979 37.5998 18.2069C37.5918 18.2719 37.6098 18.3369 37.6503 18.3894C37.6923 18.4418 37.7522 18.4768 37.8185 18.4876C37.8849 18.4984 37.9528 18.4843 38.0093 18.4479C38.0651 18.4121 38.1047 18.3559 38.1198 18.2914C38.8558 15.5994 38.4398 11.0094 32.3838 8.62537C32.0638 8.50237 31.8558 8.91887 32.1198 9.10387V9.13487ZM17.3518 17.1574C19.1655 16.6373 20.8524 15.7484 22.3068 14.5464C23.7411 13.3612 24.9072 11.8848 25.7278 10.2149C25.8718 9.93687 26.3278 10.0449 26.2558 10.3534C24.8718 16.5249 20.2398 17.8134 17.3598 17.6434C17.0558 17.6514 17.0638 17.2424 17.3518 17.1574Z" fill="#CCBEA7"/>
<path d="M30.4004 55.7217C13.8564 55.7217 0.400391 45.3227 0.400391 32.5402C0.400391 24.8257 5.34439 17.6287 13.6244 13.3162C16.0244 12.0817 18.0804 10.8397 19.9124 9.75224C20.9204 9.15074 21.8724 8.58724 22.7924 8.06274C25.6004 6.45824 28.0004 5.38574 30.4004 5.38574C32.8004 5.38574 34.8964 6.31174 37.5204 7.80824C38.3204 8.24824 39.1204 8.72624 39.9764 9.25074C41.9684 10.4387 44.2164 11.7807 47.1764 13.3162C55.4564 17.6287 60.4004 24.8182 60.4004 32.5402C60.4004 45.3227 46.9444 55.7217 30.4004 55.7217ZM30.4004 7.31474C28.4644 7.31474 26.4004 8.27874 23.8004 9.72924C22.8964 10.2382 21.9604 10.8012 20.9684 11.3877C19.1044 12.4987 16.9684 13.7557 14.5684 15.0132C6.95239 18.9862 2.40039 25.5357 2.40039 32.5402C2.40039 44.2582 14.9604 53.7932 30.4004 53.7932C45.8404 53.7932 58.4004 44.2582 58.4004 32.5402C58.4004 25.5352 53.8484 18.9862 46.2244 15.0287C43.2004 13.4857 40.8404 12.0357 38.9284 10.8937C38.0564 10.3772 37.2564 9.89874 36.5284 9.47474C34.1044 8.08574 32.3364 7.31474 30.4004 7.31474Z" fill="black"/>
<path d="M36.0396 38.1714C35.6801 39.5909 34.8621 40.8629 33.7036 41.8049C32.8227 42.6229 31.6995 43.1319 30.5036 43.2549C29.2718 43.1519 28.1094 42.6417 27.1996 41.8049C26.0531 40.8589 25.2466 39.5869 24.8956 38.1714C24.8841 38.0872 24.8926 38.0015 24.9206 37.9214C24.9488 37.8405 24.9954 37.7672 25.0566 37.7074C25.1198 37.647 25.1954 37.6013 25.2782 37.5735C25.361 37.5457 25.4489 37.5364 25.5356 37.5464H35.4076C35.4938 37.5376 35.5809 37.5478 35.6627 37.5763C35.7445 37.6048 35.8191 37.6509 35.8811 37.7114C35.9419 37.7701 35.988 37.8424 36.0155 37.9224C36.0431 38.0023 36.0513 38.0876 36.0396 38.1714Z" fill="#B71422"/>
<path d="M27.2001 41.8663C28.1078 42.7039 29.2662 43.2191 30.4961 43.3323C31.7232 43.2174 32.8785 42.7023 33.7841 41.8663C34.0694 41.61 34.3367 41.3344 34.5841 41.0413C34.0869 40.499 33.4852 40.0629 32.8151 39.7593C32.1381 39.4522 31.407 39.2823 30.6641 39.2593C29.8696 39.2766 29.0904 39.4808 28.3896 39.8553C27.6978 40.2245 27.1057 40.7558 26.6641 41.4038C26.8481 41.5653 27.0081 41.7198 27.2001 41.8663Z" fill="#FF6164"/>
<path d="M27.3275 41.257C27.7283 40.7594 28.2358 40.3584 28.8125 40.0835C29.3958 39.805 30.0332 39.6579 30.6795 39.6525C31.8694 39.6833 33.0071 40.1469 33.8795 40.9565C34.0635 40.7635 34.2395 40.563 34.4075 40.3625C33.39 39.4275 32.0445 38.896 30.6395 38.8735C29.8905 38.8794 29.1514 39.0456 28.472 39.361C27.8 39.6724 27.2045 40.1274 26.7275 40.694C26.9165 40.892 27.117 41.08 27.3275 41.257Z" fill="black"/>
<path d="M30.4716 43.7178C29.1475 43.6091 27.8962 43.0667 26.9116 42.1748C25.6731 41.1648 24.8016 39.7998 24.4236 38.2793C24.3966 38.1443 24.4011 38.0043 24.4371 37.8708C24.4735 37.7366 24.54 37.6125 24.6316 37.5078C24.7424 37.3794 24.8809 37.2777 25.0366 37.2103C25.1938 37.1418 25.3642 37.109 25.5356 37.1143H35.4076C35.5791 37.1108 35.7491 37.1443 35.9056 37.2123C36.0611 37.2797 36.1997 37.3806 36.3116 37.5078C36.4026 37.6138 36.4681 37.7378 36.5026 37.8718C36.5376 38.0053 36.5406 38.1443 36.5116 38.2793C36.1336 39.8003 35.2616 41.1648 34.0236 42.1748C33.0411 43.0651 31.7929 43.6074 30.4716 43.7178ZM25.5356 38.0093C25.4076 38.0093 25.3756 38.0633 25.3676 38.0788C25.7056 39.3978 26.4706 40.5783 27.5516 41.4498C28.3522 42.2054 29.3774 42.6794 30.4716 42.7998C31.5632 42.6806 32.5872 42.2124 33.3916 41.4648C34.4691 40.5923 35.2311 39.4118 35.5676 38.0943C35.5499 38.0694 35.5257 38.0499 35.4976 38.0378C35.4693 38.0256 35.4382 38.0211 35.4076 38.0248L25.5356 38.0093Z" fill="black"/>
<path d="M42.5757 38.6498C45.1607 38.6498 47.2557 37.4613 47.2557 35.9958C47.2557 34.5303 45.1607 33.3423 42.5757 33.3423C39.9907 33.3423 37.8957 34.5303 37.8957 35.9958C37.8957 37.4613 39.9907 38.6498 42.5757 38.6498ZM18.3597 38.6498C20.9447 38.6498 23.0397 37.4613 23.0397 35.9958C23.0397 34.5303 20.9447 33.3423 18.3597 33.3423C15.7747 33.3423 13.6797 34.5303 13.6797 35.9958C13.6797 37.4613 15.7747 38.6498 18.3597 38.6498Z" fill="#FEBBD0"/>
<path d="M20.5602 34.9313C21.4286 34.9339 22.2794 34.6865 23.0112 34.2188C23.7311 33.7596 24.2977 33.0959 24.6382 32.3128C24.9726 31.5394 25.0613 30.6818 24.8922 29.8563C24.7199 29.0253 24.3001 28.2658 23.6882 27.6778C23.0646 27.0789 22.2805 26.6742 21.4312 26.5128C20.5763 26.3479 19.6922 26.4312 18.8832 26.7528C18.0838 27.0689 17.3951 27.6134 16.9032 28.3183C16.4204 29.0116 16.1612 29.836 16.1602 30.6808C16.1602 31.8068 16.6237 32.8868 17.4487 33.6833C18.2737 34.4803 19.3927 34.9293 20.5602 34.9313ZM40.3762 34.9313C41.2457 34.9383 42.0989 34.6948 42.8337 34.2298C43.5567 33.7734 44.1269 33.1115 44.4712 32.3288C44.8094 31.5558 44.9016 30.6975 44.7352 29.8703C44.5653 29.0379 44.1473 28.2764 43.5362 27.6863C42.9138 27.085 42.1299 26.6778 41.2802 26.5143C40.4245 26.3476 39.5391 26.4297 38.7287 26.7508C37.9281 27.0662 37.2382 27.6105 36.7452 28.3158C36.2612 29.0096 36.0013 29.8349 36.0002 30.6808C35.9982 31.8033 36.4572 32.8808 37.2777 33.6778C38.0977 34.4743 39.2122 34.9253 40.3762 34.9313Z" fill="black"/>
<path d="M19.1998 30.9511C19.5262 30.953 19.8463 30.8608 20.1218 30.6856C20.3953 30.5106 20.6088 30.2621 20.7353 29.9706C20.8618 29.6801 20.8958 29.3577 20.8328 29.0471C20.7686 28.7347 20.6114 28.449 20.3818 28.2276C20.1477 28.0022 19.853 27.8496 19.5338 27.7886C19.2124 27.7263 18.88 27.7574 18.5758 27.8781C18.2752 27.9968 18.0163 28.2013 17.8313 28.4661C17.6497 28.7267 17.5522 29.0366 17.5518 29.3541C17.5518 29.7761 17.7253 30.1811 18.0338 30.4806C18.3474 30.7817 18.7651 30.9506 19.1998 30.9511ZM39.0158 30.9511C39.3422 30.953 39.6623 30.8608 39.9378 30.6856C40.2113 30.5106 40.4248 30.2621 40.5513 29.9706C40.6778 29.6801 40.7118 29.3577 40.6488 29.0471C40.5846 28.7347 40.4274 28.449 40.1978 28.2276C39.9637 28.0022 39.669 27.8496 39.3498 27.7886C39.0284 27.7263 38.696 27.7574 38.3918 27.8781C38.0912 27.9968 37.8323 28.2013 37.6473 28.4661C37.4657 28.7267 37.3682 29.0366 37.3678 29.3541C37.3678 29.7741 37.5388 30.1761 37.8443 30.4751C38.1493 30.7741 38.5643 30.9451 38.9998 30.9511H39.0158Z" fill="white"/>
</g>
<defs>
<clipPath id="clip0_143_210">
<rect width="64" height="64" fill="white"/>
</clipPath>
</defs>
</svg>
