<svg width="64" height="64" viewBox="0 0 64 64" fill="none" xmlns="http://www.w3.org/2000/svg">
<path d="M57.7 15.3501L33.55 1.4501C33.15 1.2001 32.6 1.1001 32 1.1001C31.4 1.1001 30.85 1.2501 30.45 1.4501L6.45 15.4001C5.6 15.9001 5 17.1501 5 18.1001V45.9501C5 46.5001 5.1 47.1501 5.5 47.7001L58.9 16.7001C58.6 16.1001 58.15 15.6501 57.7 15.3501Z" fill="#659AD3"/>
<path d="M5.34961 47.6499C5.59961 48.0499 5.94961 48.3999 6.29961 48.5999L30.3996 62.5499C30.7996 62.7999 31.3496 62.8999 31.9496 62.8999C32.5496 62.8999 33.0996 62.7499 33.4996 62.5499L57.4996 48.5999C58.3496 48.0999 58.9496 46.8499 58.9496 45.8999V18.0499C58.9496 17.5999 58.8996 17.0999 58.6496 16.6499L5.34961 47.6499Z" fill="#03599C"/>
<path d="M42.65 38.05C40.55 41.75 36.55 44.25 32 44.25C25.25 44.25 19.75 38.75 19.75 32C19.75 25.25 25.25 19.75 32 19.75C36.55 19.75 40.55 22.25 42.65 26L49.15 22.25C45.75 16.3 39.35 12.25 32 12.25C21.1 12.25 12.25 21.1 12.25 32C12.25 42.9 21.1 51.75 32 51.75C39.3 51.75 45.7 47.75 49.1 41.85L42.65 38.05Z" fill="white"/>
</svg>
