<svg width="64" height="64" viewBox="0 0 64 64" fill="none" xmlns="http://www.w3.org/2000/svg">
<path d="M9.40688 57.0613L4.37988 0.675781H59.6199L54.5879 57.0528L31.9664 63.3243L9.40688 57.0613Z" fill="#1572B6"/>
<path d="M32.001 58.5311L50.2805 53.4631L54.581 5.28613H32.001V58.5311Z" fill="#33A9DC"/>
<path d="M32.001 25.7143H41.152L41.784 18.6328H32.001V11.7173H49.342L49.176 13.5728L47.476 32.6298H32.001V25.7143Z" fill="white"/>
<path d="M32.0415 43.6744L32.011 43.6834L24.3095 41.6039L23.817 36.0884H16.876L17.8445 46.9469L32.01 50.8784L32.0415 50.8694V43.6744Z" fill="#EBEBEB"/>
<path d="M40.5636 32.3374L39.7306 41.5984L32.0176 43.6804V50.8754L46.1946 46.9464L46.2986 45.7779L47.5016 32.3374H40.5636Z" fill="white"/>
<path d="M32.0242 11.7173V18.6328H15.3202L15.1817 17.0788L14.8667 13.5728L14.7012 11.7173H32.0242ZM32.0007 25.7153V32.6308H24.3962L24.2577 31.0768L23.9422 27.5708L23.7772 25.7153H32.0007Z" fill="#EBEBEB"/>
</svg>
