<svg width="64" height="64" viewBox="0 0 64 64" fill="none" xmlns="http://www.w3.org/2000/svg">
<g clip-path="url(#clip0_143_26)">
<path d="M17.6002 17.4498L13.4502 13.2998V43.1498L13.5002 44.5498C13.5002 45.1998 13.6002 45.9498 13.8502 46.6998L46.6502 58.2498L54.8002 54.6498L17.6002 17.4498Z" fill="#00C4B3"/>
<path d="M54.8002 54.6502L46.6502 58.2502L13.9502 46.7002C14.6002 49.1002 15.9502 51.7502 17.4502 53.3002L28.1002 63.9002L51.9002 63.9502L54.8002 54.6502Z" fill="#22D3C5"/>
<path d="M0.850431 32.55C-0.199569 33.65 0.350431 36 2.00043 37.75L9.35043 45.15L13.9504 46.8C13.8004 46.05 13.6004 45.3 13.6004 44.65L13.5504 43.25L13.4504 13.35M54.8004 54.65L58.4004 46.45L46.9004 13.65C46.1504 13.5 45.4004 13.35 44.7504 13.3L43.3004 13.25L13.5004 13.3" fill="#0075C9"/>
<path d="M54.7998 54.6499L63.6498 51.7499V27.3999L53.4498 17.1499C51.9498 15.6499 49.2998 14.2499 46.8498 13.6499L58.3998 46.4499" fill="#00A8E1"/>
<path d="M45.2502 9.10016L37.8502 1.75016C36.1502 0.0501598 33.8502 -0.44984 32.6502 0.60016L13.4502 13.3002H43.2002L44.6502 13.3502C45.3002 13.3502 46.0502 13.4502 46.8002 13.7002L45.2502 9.10016Z" fill="#00C4B3"/>
</g>
<defs>
<clipPath id="clip0_143_26">
<rect width="64" height="64" fill="white"/>
</clipPath>
</defs>
</svg>
