<svg width="64" height="64" viewBox="0 0 64 64" fill="none" xmlns="http://www.w3.org/2000/svg">
<g clip-path="url(#clip0_143_76)">
<path d="M30.327 24.4413C30.8525 23.6743 31.4255 23.5778 31.8905 23.5778C32.3555 23.5778 33.128 23.6743 33.654 24.4413C37.778 30.0598 44.5865 41.2558 49.61 49.5173C52.8875 54.9008 55.403 59.0388 55.921 59.5648C57.858 61.5408 60.5155 60.3093 62.06 58.0673C63.5795 55.8613 64 54.3113 64 52.6588C64 51.5323 41.974 10.9013 39.757 7.51882C37.625 4.26682 36.928 3.44482 33.28 3.44482H30.5455C26.9055 3.44482 26.38 4.26682 24.246 7.51882C22.029 10.9013 0 51.5323 0 52.6563C0 54.3113 0.4235 55.8613 1.946 58.0673C3.49 60.3093 6.1475 61.5408 8.085 59.5623C8.6 59.0358 11.1155 54.9008 14.3925 49.5148C19.416 41.2558 26.2025 30.0598 30.3295 24.4383L30.327 24.4413Z" fill="black"/>
</g>
<defs>
<clipPath id="clip0_143_76">
<rect width="64" height="64" fill="white"/>
</clipPath>
</defs>
</svg>
