<svg width="64" height="64" viewBox="0 0 64 64" fill="none" xmlns="http://www.w3.org/2000/svg">
<path d="M63.3354 49.2198C61.0554 49.7998 59.6454 49.2448 58.3804 47.3448C55.5404 43.0898 52.4054 39.0298 49.3804 34.8948C48.9904 34.3598 48.5854 33.8348 48.0804 33.1698C44.5004 37.9998 40.9254 42.5998 37.5704 47.3848C36.3704 49.0948 35.1104 49.8398 32.8704 49.2348L46.3304 31.1698L33.8004 14.8548C35.9554 14.4348 37.4454 14.6498 38.7654 16.5798C41.6804 20.8398 44.8954 24.8948 48.1004 29.1848C51.3254 24.9098 54.5004 20.8498 57.5004 16.6298C58.7054 14.9198 60.0004 14.2698 62.1654 14.8998C60.5254 17.0748 58.9204 19.2148 57.3054 21.3398C55.1254 24.2048 52.9854 27.1048 50.7254 29.9098C49.9204 30.9098 50.0504 31.5598 50.7704 32.5048C54.9504 37.9998 59.0804 43.5498 63.3354 49.2198ZM0.665391 30.8698C1.02539 29.0648 1.26539 27.2248 1.76539 25.4548C4.76539 14.7398 17.0654 10.2848 25.5154 16.9248C30.4654 20.8198 31.6954 26.3098 31.4504 32.4998H3.55039C3.13039 43.6048 11.1254 50.3098 21.3154 46.8898C24.8904 45.6898 26.9954 42.8898 28.0504 39.3898C28.5854 37.6348 29.4704 37.3598 31.1204 37.8598C30.2754 42.2398 28.3604 45.8998 24.3604 48.1898C18.3604 51.6198 9.79539 50.5098 5.29039 45.7448C2.63039 42.9448 1.50039 39.4598 1.00039 35.6948C0.925391 35.0948 0.770391 34.5048 0.650391 33.9098C0.660391 32.8965 0.665391 31.8832 0.665391 30.8698ZM3.60039 30.1248H28.8154C28.6504 22.0948 23.6504 16.3898 16.8154 16.3398C9.31539 16.2798 3.92539 21.8498 3.60039 30.1248Z" fill="black"/>
</svg>
