<svg width="64" height="64" viewBox="0 0 64 64" fill="none" xmlns="http://www.w3.org/2000/svg">
<g clip-path="url(#clip0_143_137)">
<path d="M8.7373 51.6378L16.6148 1.23084C16.662 0.929594 16.8026 0.650784 17.0168 0.433789C17.231 0.216795 17.508 0.0725828 17.8086 0.0215228C18.1092 -0.0295371 18.4183 0.0151355 18.6922 0.149231C18.966 0.283326 19.1908 0.500067 19.3348 0.76884L27.4818 15.9638L30.7288 9.78084C30.8523 9.54631 31.0374 9.34996 31.2644 9.21298C31.4913 9.076 31.7513 9.00361 32.0163 9.00361C32.2813 9.00361 32.5414 9.076 32.7683 9.21298C32.9952 9.34996 33.1803 9.54631 33.3038 9.78084L55.2888 51.6378H8.7373Z" fill="#FFA000"/>
<path d="M35.9518 32.0025L27.4778 15.9565L8.7373 51.638L35.9518 32.0025Z" fill="#F57C00"/>
<path d="M55.2888 51.6378L49.2553 14.3018C49.2106 14.0387 49.0944 13.7929 48.9194 13.5913C48.7445 13.3897 48.5175 13.2401 48.2633 13.1588C48.0091 13.0776 47.7375 13.0679 47.4782 13.1309C47.2189 13.1939 46.9819 13.327 46.7933 13.5158L8.7373 51.6373L29.7948 63.4463C30.4451 63.8094 31.1775 64 31.9223 64C32.6671 64 33.3995 63.8094 34.0498 63.4463L55.2888 51.6378Z" fill="#FFCA28"/>
<path d="M49.2554 14.3019C49.2107 14.0388 49.0945 13.793 48.9195 13.5915C48.7446 13.3899 48.5176 13.2403 48.2634 13.1589C48.0093 13.0776 47.7377 13.0679 47.4784 13.1308C47.2191 13.1937 46.9821 13.3267 46.7934 13.5154L39.2399 21.0889L33.3004 9.78091C33.177 9.54638 32.9918 9.35003 32.7649 9.21305C32.538 9.07608 32.278 9.00368 32.0129 9.00368C31.7479 9.00368 31.4879 9.07608 31.261 9.21305C31.0341 9.35003 30.8489 9.54638 30.7254 9.78091L27.4784 15.9634L19.3314 0.768914C19.1872 0.49977 18.962 0.282804 18.6877 0.148739C18.4134 0.0146736 18.1039 -0.0296957 17.8029 0.0219138C17.5021 0.0732947 17.2251 0.218059 17.0111 0.435685C16.7972 0.653311 16.6572 0.932758 16.6109 1.23441L8.73741 51.6379H8.71191L8.73691 51.6669L8.94441 51.7689L46.7824 13.8869C46.9711 13.6974 47.2084 13.5635 47.4682 13.5001C47.728 13.4366 48.0003 13.4459 48.2551 13.5271C48.51 13.6083 48.7375 13.7581 48.9127 13.9602C49.088 14.1622 49.2041 14.4087 49.2484 14.6724L55.2309 51.6739L55.2889 51.6374L49.2554 14.3019ZM8.80641 51.5689L16.6144 1.59091C16.6608 1.28919 16.8009 1.00969 17.0149 0.792C17.229 0.574307 17.506 0.429443 17.8069 0.377914C18.1079 0.326426 18.4175 0.370904 18.6918 0.505054C18.9661 0.639204 19.1913 0.85623 19.3354 1.12541L27.4814 16.3204L30.7289 10.1374C30.8524 9.90288 31.0376 9.70653 31.2645 9.56955C31.4914 9.43258 31.7514 9.36018 32.0164 9.36018C32.2815 9.36018 32.5415 9.43258 32.7684 9.56955C32.9953 9.70653 33.1805 9.90288 33.3039 10.1374L39.1229 21.2049L8.80541 51.5689H8.80641Z" fill="white" fill-opacity="0.2"/>
<path opacity="0.2" d="M34.0498 63.0902C33.3995 63.4533 32.6671 63.6439 31.9223 63.6439C31.1775 63.6439 30.4451 63.4533 29.7948 63.0902L8.78733 51.3152L8.73633 51.6387L29.7938 63.4437C30.4441 63.8068 31.1765 63.9974 31.9213 63.9974C32.6661 63.9974 33.3985 63.8068 34.0488 63.4437L55.2888 51.6387L55.2338 51.3037L34.0488 63.0912L34.0498 63.0902Z" fill="#A52714"/>
</g>
<defs>
<clipPath id="clip0_143_137">
<rect width="64" height="64" fill="white"/>
</clipPath>
</defs>
</svg>
