<svg width="64" height="64" viewBox="0 0 64 64" fill="none" xmlns="http://www.w3.org/2000/svg">
<g clip-path="url(#clip0_143_193)">
<path d="M62.3685 29.1891L34.8105 1.63214C33.2245 0.0451446 30.6505 0.0451446 29.062 1.63214L23.34 7.35514L30.599 14.6141C32.2865 14.0446 34.2205 14.4266 35.565 15.7711C36.9165 17.1241 37.2955 19.0746 36.712 20.7676L43.708 27.7641C45.4005 27.1806 47.354 27.5576 48.705 28.9116C50.595 30.8001 50.595 33.8616 48.705 35.7511C48.2559 36.2005 47.7226 36.557 47.1356 36.8002C46.5487 37.0434 45.9196 37.1686 45.2843 37.1686C44.6489 37.1686 44.0198 37.0434 43.4329 36.8002C42.8459 36.557 42.3126 36.2005 41.8635 35.7511C41.1887 35.0759 40.7287 34.2162 40.5414 33.2801C40.3541 32.3441 40.4479 31.3735 40.811 30.4906L34.287 23.9666L34.286 41.1371C34.7593 41.3702 35.1915 41.679 35.5655 42.0511C37.4545 43.9396 37.4545 47.0001 35.5655 48.8926C33.676 50.7811 30.6135 50.7811 28.726 48.8926C26.837 47.0006 26.837 43.9401 28.726 42.0511C29.1786 41.5979 29.7169 41.2392 30.3095 40.9961V23.6666C29.7164 23.4242 29.1779 23.0653 28.726 22.6111C27.295 21.1811 26.9505 19.0811 27.6845 17.3231L20.528 10.1666L1.63201 29.0616C0.869665 29.8242 0.441406 30.8584 0.441406 31.9366C0.441406 33.0149 0.869665 34.0491 1.63201 34.8116L29.1905 62.3686C30.7775 63.9556 33.3505 63.9556 34.94 62.3686L62.369 34.9396C63.1312 34.1768 63.5593 33.1426 63.5592 32.0643C63.5591 30.986 63.1308 29.9518 62.3685 29.1891Z" fill="#F34F29"/>
</g>
<defs>
<clipPath id="clip0_143_193">
<rect width="64" height="64" fill="white"/>
</clipPath>
</defs>
</svg>
