<svg width="64" height="64" viewBox="0 0 64 64" fill="none" xmlns="http://www.w3.org/2000/svg">
<path d="M9.51813 56.9381L4.51562 0.830566H59.4836L54.4756 56.9296L31.9661 63.1696L9.51813 56.9381Z" fill="#E44D26"/>
<path d="M32 58.4L50.189 53.357L54.4685 5.41797H32V58.4Z" fill="#F16529"/>
<path d="M31.9996 26.2273H22.8936L22.2646 19.1803H31.9996V12.2993H14.7441L14.9091 14.1453L16.6001 33.1088H31.9996V26.2273ZM31.9996 44.0988L31.9691 44.1073L24.3056 42.0373L23.8161 36.5498H16.9076L17.8716 47.3543L31.9681 51.2673L31.9996 51.2588V44.0988Z" fill="#EBEBEB"/>
<path d="M31.9756 26.2273V33.1088H40.4491L39.6506 42.0333L31.9756 44.1048V51.2643L46.0831 47.3543L46.1866 46.1918L47.8036 28.0753L47.9711 26.2273H46.1171H31.9756ZM31.9756 12.2993V19.1803H48.5976L48.7356 17.6343L49.0496 14.1453L49.2141 12.2993H31.9756Z" fill="white"/>
</svg>
