<svg width="64" height="64" viewBox="0 0 64 64" fill="none" xmlns="http://www.w3.org/2000/svg">
<path d="M23.8086 49.06C23.8086 49.06 21.4251 50.447 25.5071 50.915C30.4531 51.48 32.9807 51.399 38.4297 50.369C38.4297 50.369 39.8652 51.2665 41.8662 52.0445C29.6467 57.2795 14.2121 51.741 23.8086 49.06ZM22.3146 42.2275C22.3146 42.2275 19.6406 44.207 23.7261 44.63C29.0096 45.1755 33.1812 45.22 40.4032 43.83C40.4032 43.83 41.3997 44.8425 42.9692 45.3955C28.1982 49.7155 11.7461 45.7355 22.3146 42.2275Z" fill="#0074BD"/>
<path d="M34.9013 30.6355C37.9138 34.103 34.1113 37.2205 34.1113 37.2205C34.1113 37.2205 41.7558 33.275 38.2458 28.332C34.9663 23.7245 32.4523 21.436 46.0633 13.542C46.0633 13.5425 24.6978 18.877 34.9013 30.6355Z" fill="#EA2D2E"/>
<path d="M51.0612 54.1145C51.0612 54.1145 52.8257 55.5695 49.1172 56.694C42.0662 58.83 19.7642 59.474 13.5702 56.7795C11.3447 55.8105 15.5197 54.467 16.8332 54.1835C18.2027 53.887 18.9847 53.941 18.9847 53.941C16.5082 52.1975 2.97822 57.366 12.1132 58.8485C37.0237 62.8865 57.5217 57.03 51.0612 54.1145ZM24.9557 35.147C24.9557 35.147 13.6127 37.8415 20.9392 38.821C24.0332 39.235 30.1982 39.14 35.9447 38.658C40.6397 38.2635 45.3512 37.421 45.3512 37.421C45.3512 37.421 43.6972 38.1305 42.4992 38.9475C30.9782 41.978 8.72722 40.5665 15.1337 37.4685C20.5497 34.849 24.9557 35.147 24.9557 35.147ZM45.3042 46.5205C57.0147 40.437 51.5997 34.5905 47.8202 35.378C46.8962 35.5705 46.4817 35.738 46.4817 35.738C46.4817 35.738 46.8257 35.1985 47.4817 34.9665C54.9582 32.339 60.7072 42.718 45.0702 46.829C45.0702 46.828 45.2497 46.6655 45.3042 46.5205Z" fill="#0074BD"/>
<path d="M38.2451 0.793457C38.2451 0.793457 44.7291 7.28146 32.0936 17.255C21.9606 25.258 29.7831 29.82 32.0901 35.0345C26.1746 29.698 21.8356 24.9995 24.7461 20.627C29.0201 14.21 40.8606 11.0975 38.2451 0.793457Z" fill="#EA2D2E"/>
<path d="M26.1067 63.0105C37.3447 63.729 54.6067 62.6105 55.0152 57.2925C55.0152 57.2925 54.2297 59.3085 45.7267 60.908C36.1337 62.714 24.2997 62.5035 17.2832 61.345C17.2832 61.3455 18.7207 62.5355 26.1067 63.0105Z" fill="#0074BD"/>
</svg>
