<svg width="64" height="64" viewBox="0 0 64 64" fill="none" xmlns="http://www.w3.org/2000/svg">
<path d="M0.704102 0.704102H63.2961V63.2966H0.704102V0.704102Z" fill="#F0DB4F"/>
<path d="M58.1738 48.3679C57.7153 45.5124 55.8533 43.1139 50.3378 40.8774C48.4218 39.9969 46.2858 39.3664 45.6493 37.9144C45.4233 37.0694 45.3933 36.5934 45.5363 36.0819C45.9468 34.4219 47.9283 33.9044 49.4988 34.3804C50.5103 34.7194 51.4678 35.4989 52.0453 36.7424C54.7463 34.9934 54.7408 35.0049 56.6268 33.8029C55.9363 32.7324 55.5678 32.2384 55.1158 31.7804C53.4913 29.9659 51.2778 29.0314 47.7378 29.1029L45.8938 29.3414C44.1268 29.7879 42.4428 30.7154 41.4553 31.9589C38.4923 35.3209 39.3373 41.2049 42.9428 43.6264C46.4948 46.2924 51.7128 46.8989 52.3793 49.3919C53.0278 52.4439 50.1363 53.4319 47.2623 53.0809C45.1443 52.6404 43.9663 51.5639 42.6928 49.6064C40.3488 50.9629 40.3488 50.9629 37.9388 52.3489C38.5103 53.5984 39.1108 54.1639 40.0688 55.2464C44.6028 59.8454 55.9488 59.6194 57.9838 52.6584C58.0663 52.4194 58.6143 50.8254 58.1738 48.3679ZM34.7313 29.4714H28.8768L28.8528 44.6074C28.8528 47.8264 29.0193 50.7774 28.4958 51.6819C27.6393 53.4609 25.4198 53.2404 24.4083 52.8954C23.3788 52.3894 22.8553 51.6699 22.2488 50.6529C22.0823 50.3609 21.9573 50.1349 21.9153 50.1174L17.1553 53.0324C17.9468 54.6569 19.1128 56.0669 20.6063 56.9829C22.8373 58.3219 25.8358 58.7324 28.9718 58.0124C31.0128 57.4179 32.7738 56.1864 33.6958 54.3119C35.0288 51.8544 34.7428 48.8799 34.7308 45.5899C34.7608 40.2224 34.7313 34.8559 34.7313 29.4714Z" fill="#323330"/>
</svg>
