<svg width="64" height="64" viewBox="0 0 64 64" fill="none" xmlns="http://www.w3.org/2000/svg">
<g clip-path="url(#clip0_143_166)">
<path d="M34.9765 19.6543C34.1385 19.6893 32.7225 19.9143 32.7225 20.0093C32.7225 20.0488 33.7205 20.5488 33.797 20.5488C33.867 20.5488 35.0255 21.1268 35.283 21.2868C35.619 21.5018 35.8595 21.6968 35.789 21.6968C35.744 21.6968 34.5545 21.2363 34.1035 21.0428C33.7365 20.8883 32.211 20.4333 31.4685 20.2578C31.0665 20.1638 30.8965 20.1288 30.213 20.0038C29.205 19.8198 28.0195 19.8088 27.504 19.9783C26.7655 20.2183 26.5995 20.5133 26.5995 21.6013C26.5995 22.2013 26.629 22.4548 26.7595 22.9938C26.8165 23.2283 26.9765 23.7438 27.051 23.9178C27.0725 23.9728 27.1425 24.1428 27.201 24.2928C27.2615 24.4413 27.4435 24.8258 27.6035 25.1403C28.502 26.9238 29.8475 28.4103 31.744 29.7183C32.342 30.1283 33.967 30.9058 34.619 31.0918C34.785 31.1368 34.84 31.2303 34.705 31.2303C34.555 31.2303 33.18 30.8513 32.8985 30.7323C32.7914 30.6849 32.6826 30.6412 32.5725 30.6013C31.594 30.2068 30.344 29.3943 29.3105 28.4703C28.1779 27.4628 27.2725 26.226 26.6545 24.8418C26.258 23.9468 25.9885 22.9043 25.922 21.9958C25.883 21.4763 25.842 21.3513 25.707 21.3573C25.662 21.3573 25.2345 21.3418 24.7635 21.3163C23.4825 21.2613 21.7325 21.4023 20 21.7013C16.6875 22.2653 13.1135 23.5683 9.43546 25.5543C8.8238 25.8855 8.21948 26.2301 7.62296 26.5878C7.55296 26.6288 7.33196 26.7633 7.13096 26.8883C6.93146 27.0133 6.69546 27.1523 6.60946 27.2068C6.41946 27.3183 4.31646 28.7458 4.06446 28.9353C3.97046 29.0038 3.70896 29.1988 3.48846 29.3593C2.48996 30.0973 0.316463 31.8708 0.191463 32.0508C0.130963 32.1408 0.226463 32.1858 0.355463 32.1408C0.421963 32.1148 0.591963 32.0798 0.728463 32.0608C0.868963 32.0388 1.23046 31.9453 1.53096 31.8458C1.83596 31.7498 2.16396 31.6503 2.25796 31.6248C3.00196 31.4508 3.30296 31.3903 3.73796 31.3258C3.93546 31.3008 4.22646 31.2558 4.39046 31.2303C6.42946 30.9313 7.40246 30.8573 8.31046 30.9253C10.283 31.0853 12.17 31.4218 13.25 31.8043C14.0585 32.0953 15.703 32.9843 16.426 33.5173C16.844 33.8323 18.1875 35.1698 18.4845 35.5738C18.7145 35.8943 18.9705 36.1738 19.031 36.1738C19.051 36.1738 19.076 35.1538 19.082 33.9118L19.0955 31.6558L21.7365 31.6408C23.8145 31.6308 24.3905 31.6463 24.426 31.6908C24.4765 31.7558 24.5975 31.9708 24.994 32.7028C25.371 33.4078 25.5565 33.7478 25.672 33.9508C25.732 34.0623 25.871 34.3203 25.9885 34.5253C26.0975 34.7303 26.3025 35.1093 26.4435 35.3688C26.584 35.6288 26.699 35.8493 26.699 35.8588C26.699 35.9038 26.906 36.1738 26.9415 36.1738C26.961 36.1738 27.0115 36.0973 27.0465 36.0138C27.086 35.9238 27.1915 35.7243 27.2775 35.5738C27.3675 35.4238 27.5275 35.1308 27.6385 34.9258C27.75 34.7208 27.9005 34.4358 27.9805 34.3008C28.201 33.9058 28.4315 33.4783 28.623 33.1288C28.826 32.7426 29.0351 32.3596 29.25 31.9798C29.3145 31.8548 29.395 31.7238 29.42 31.6908C29.461 31.6458 30.0525 31.6303 32.1915 31.6398L34.9065 31.6553L34.9215 36.0638C34.9315 39.5363 34.9455 40.4663 34.9965 40.4663C35.0255 40.4603 35.2265 40.3448 35.4335 40.2003C35.7245 39.9973 35.8495 39.8723 35.9845 39.6418C36.291 39.1183 37.16 38.2943 37.742 37.9738C38.4492 37.5828 39.21 37.2974 40 37.1268C40.8025 36.9568 41.039 36.9318 42.8615 36.8668C46.1875 36.7518 46.6795 36.7318 46.705 36.7068C46.7205 36.6933 46.676 36.5623 46.6095 36.4118C46.5395 36.2673 46.4195 35.9978 46.334 35.8183C46.0175 35.1348 46.0175 34.9058 46.3495 34.5703C46.5745 34.3353 47.156 34.1303 48.156 33.9313C48.3205 33.8963 48.5275 33.8513 48.611 33.8223C48.6975 33.7968 48.8025 33.7773 48.8475 33.7773C48.9745 33.7773 49.9725 33.5328 50.1835 33.4528C50.3285 33.3928 51.1115 33.2228 52.045 33.0428C52.451 32.9628 53.506 32.7538 54.379 32.5778C54.9315 32.4688 55.508 32.3533 55.658 32.3238C55.8085 32.2948 56.0255 32.2498 56.135 32.2303C56.246 32.2053 56.3905 32.1738 56.461 32.1638C56.531 32.1503 56.883 32.0798 57.24 32.0058C57.5076 31.9471 57.7767 31.8949 58.047 31.8493C58.299 31.8258 60.1915 31.3708 60.627 31.2303C61.3205 31.0053 61.5255 30.9158 61.963 30.6228C62.4335 30.3028 62.5645 30.1288 63.031 29.1988C63.549 28.1658 63.623 27.9918 63.7695 27.5563C63.9945 26.8633 63.9805 26.5993 63.6935 26.3083C63.492 26.1093 63.0605 25.9043 62.746 25.8593C62.51 25.8298 62.4785 25.8393 62.3635 25.9643C62.293 26.0393 62.2325 26.1288 62.2325 26.1598C62.2325 26.2048 62.1525 26.4238 61.9275 26.9628C61.906 27.0178 61.8615 27.1523 61.826 27.2613C61.797 27.3728 61.736 27.5273 61.701 27.6113C61.6365 27.7513 61.631 27.7263 61.656 27.3378C61.6815 26.9528 61.746 26.6288 61.8925 26.1383C61.918 26.0448 61.953 25.8848 61.967 25.7848L61.992 25.6048L61.4705 25.3963C60.928 25.1713 60.4605 24.9763 60.1915 24.8553C60.0995 24.8223 59.875 24.7323 59.6895 24.6618C59.498 24.5918 59.2675 24.5018 59.172 24.4568C58.9979 24.3798 58.822 24.307 58.6445 24.2383C58.3085 24.1073 57.1345 23.7088 56.1345 23.3943C55.4669 23.1896 54.7984 22.9879 54.129 22.7893C53.8933 22.7294 53.659 22.6647 53.426 22.5953C53.346 22.5738 53.1485 22.5193 52.998 22.4803C52.115 22.2363 51.885 22.1753 51.568 22.0853C51.3933 22.035 51.2176 21.9884 51.041 21.9453C50.9455 21.9218 50.686 21.8613 50.465 21.8063C50.078 21.7108 48.457 21.3378 47.578 21.1363L46.951 20.9918C46.84 20.9668 46.641 20.9273 46.5 20.9018C46.3635 20.8768 46.078 20.8218 45.871 20.7768C45.666 20.7383 45.2245 20.6518 44.8925 20.5973C44.5625 20.5388 44.166 20.4688 44.0155 20.4433C42.629 20.1933 42.5355 20.1793 40.0505 19.9043C38.5195 19.7303 36.4605 19.5838 35.959 19.6093C35.879 19.6093 35.434 19.6288 34.9765 19.6543ZM29.174 22.1148C30.5 22.5448 31.789 23.1288 32.672 23.6988C33.375 24.1523 34.248 24.8768 34.4845 25.2008L34.584 25.3358L34.3945 25.2613C34.2895 25.2163 34.0685 25.1213 33.9025 25.0408C33.0195 24.6308 32.924 24.5973 32.924 24.6873C32.924 24.7108 33.129 25.0408 33.375 25.4098C33.627 25.7848 33.826 26.1148 33.826 26.1448C33.826 26.1698 33.7325 26.1288 33.615 26.0488C33.164 25.7398 32.105 25.2948 32.045 25.3848C32.0295 25.4098 32.355 25.8238 32.7735 26.3083C33.1835 26.7928 33.5255 27.2068 33.5255 27.2383C33.5255 27.3123 33.4455 27.3023 33.0645 27.1618C32.672 27.0233 32.5725 27.0078 32.5725 27.1033C32.5725 27.1678 33.42 28.3103 33.756 28.7048C33.8515 28.8143 33.9275 28.9198 33.9275 28.9448C33.9275 29.0643 32.752 28.3008 31.92 27.6423C30.73 26.6933 29.58 25.4198 28.975 24.3673C28.4765 23.5073 28.3065 23.0448 28.3065 22.5348C28.3065 22.2363 28.3205 22.1758 28.4315 22.0698C28.4965 22.0018 28.578 21.9448 28.6075 21.9448C28.6365 21.9448 28.8885 22.0213 29.174 22.1148ZM45.0195 23.8923C45.5 23.9783 46.158 24.0918 46.4745 24.1483C46.791 24.2033 47.1775 24.2673 47.328 24.2928C47.4785 24.3223 47.693 24.3613 47.8045 24.3863C47.9145 24.4118 48.131 24.4568 48.2815 24.4918C48.7775 24.6018 48.8985 24.6268 49.711 24.8163C50.584 25.0213 50.7755 25.0603 51.041 25.1148C51.2675 25.1598 51.492 25.2458 51.492 25.2848C51.492 25.3008 51.328 25.3963 51.127 25.4998C50.715 25.7048 50.629 25.7203 48.9335 25.7848C47.7795 25.8338 47.162 25.8198 46.5995 25.7298C45.4645 25.5548 44.879 25.2363 44.422 24.5468C44.262 24.3123 44.1565 24.2418 43.789 24.1483C43.654 24.1073 43.4475 24.0523 43.338 24.0173C43.2265 23.9823 43.037 23.9273 42.916 23.8923C42.5545 23.7988 42.76 23.7438 43.4885 23.7438C43.99 23.7438 44.342 23.7773 45.0195 23.8923ZM51.0565 30.8673C51.0154 30.8771 50.9726 30.8771 50.9315 30.8673C50.8965 30.8513 50.9215 30.8418 50.992 30.8418C51.0605 30.8418 51.086 30.8518 51.057 30.8668L51.0565 30.8673ZM50.84 30.9258C50.84 30.9508 50.7815 30.9858 50.705 31.0018C50.549 31.0408 49.9375 31.2168 49.7365 31.2808C49.666 31.3063 49.4395 31.3768 49.2345 31.4358C48.717 31.5858 47.463 31.9938 47.127 32.1248C46.494 32.3648 45.008 33.1523 44.799 33.3633C44.4865 33.6678 44.3905 33.9958 44.4375 34.6248C44.451 34.8903 44.4865 35.2248 44.5175 35.3688C44.578 35.6838 44.5425 35.7693 44.422 35.6133C44.301 35.4588 44.045 34.9003 43.9705 34.6248C43.9295 34.5018 43.885 34.3358 43.8595 34.2558C43.7695 33.9723 43.8045 33.6363 43.9455 33.4333C44.135 33.1423 44.8185 32.6793 45.621 32.2948C46.002 32.1093 47.111 31.7298 48.131 31.4313C48.336 31.3713 48.5625 31.3008 48.633 31.2813C49.3555 31.0368 50.84 30.8023 50.84 30.9258ZM34.967 31.2613C34.951 31.2753 34.9065 31.2813 34.871 31.2653C34.83 31.2518 34.846 31.2363 34.9005 31.2363C34.957 31.2303 34.9865 31.2463 34.967 31.2613Z" fill="#850000"/>
<path d="M24.4414 40.9159V44.4099H26.9414C28.8184 44.4099 29.4549 44.3949 29.4999 44.3499C29.5759 44.2749 29.5919 37.4219 29.5154 37.4219C29.4904 37.4219 29.4554 37.4609 29.4394 37.5059C29.4194 37.5509 28.8729 38.4044 28.2204 39.4024C27.1874 40.9804 26.9004 41.3649 26.9004 41.1699C26.9004 41.1349 25.1894 38.4649 24.7519 37.8199C24.6933 37.7364 24.6416 37.6483 24.5974 37.5564C24.5564 37.4804 24.5074 37.4214 24.4824 37.4214C24.4609 37.4214 24.4414 38.9939 24.4414 40.9159Z" fill="#850000"/>
</g>
<defs>
<clipPath id="clip0_143_166">
<rect width="64" height="64" fill="white"/>
</clipPath>
</defs>
</svg>
