<svg width="64" height="64" viewBox="0 0 64 64" fill="none" xmlns="http://www.w3.org/2000/svg">
<g clip-path="url(#clip0_143_198)">
<path d="M0 3.5312C0 1.6124 1.6124 0 3.5312 0H60.4712C62.39 0 64.0024 1.6124 64.0024 3.5312V60.4712C64.0024 62.39 62.39 64.0024 60.4712 64.0024H3.5312C1.6124 64.0024 0 62.39 0 60.4712L0 3.5312ZM11.845 52.2902H32.0425L32.0674 23.0242H41.8144L41.7895 52.3147H51.561L51.5864 13.2772L12.5484 13.2275L12.4986 52.29L11.845 52.2902Z" fill="#CB3837"/>
<path d="M12.5527 32.7599V13.2559H20.4802C24.8403 13.2559 33.6172 13.2727 39.9842 13.2933L51.5607 13.3308V52.2638H41.8227V22.9938H32.0287V52.2638H12.5527V32.7599Z" fill="white"/>
</g>
<defs>
<clipPath id="clip0_143_198">
<rect width="64" height="64" fill="white"/>
</clipPath>
</defs>
</svg>
