<svg width="64" height="64" viewBox="0 0 64 64" fill="none" xmlns="http://www.w3.org/2000/svg">
<path d="M60.9004 46.5501C57.5504 48.3001 40.2004 55.4001 36.5004 57.3501C32.8004 59.3001 30.7504 59.2501 27.8504 57.8501C24.9504 56.4501 6.50039 49.0501 3.15039 47.4501C1.50039 46.6501 0.650391 46.0001 0.650391 45.3501V39.0001C0.650391 39.0001 24.6504 33.7501 28.5504 32.4001C32.4504 31.0001 33.7504 30.9501 37.0504 32.1501C40.3504 33.3501 60.1004 36.9001 63.3504 38.1001V44.3501C63.3504 45.0001 62.6004 45.7001 60.9004 46.5501Z" fill="#A41E11"/>
<path d="M60.9003 40.25C57.5503 42 40.2003 49.1 36.5003 51.05C32.8003 53 30.7503 52.95 27.8503 51.55C24.9503 50.15 6.50031 42.7 3.15031 41.1C-0.149691 39.5 -0.249691 38.4 3.00031 37.15C6.25031 35.85 24.6003 28.65 28.5003 27.3C32.4003 25.9 33.7003 25.85 37.0003 27.05C40.3003 28.25 57.5503 35.1 60.8003 36.3C64.1503 37.5 64.2503 38.5 60.9003 40.25Z" fill="#D82C20"/>
<path d="M60.9004 36.25C57.5504 38 40.2004 45.1 36.5004 47.05C32.8004 48.95 30.7504 48.95 27.8504 47.55C24.9504 46.15 6.50039 38.7 3.15039 37.1C1.50039 36.3 0.650391 35.65 0.650391 35V28.65C0.650391 28.65 24.6504 23.4 28.5504 22.05C32.4504 20.65 33.7504 20.6 37.0504 21.8C40.3504 23 60.1004 26.55 63.3504 27.75V34C63.3504 34.65 62.6004 35.35 60.9004 36.25Z" fill="#A41E11"/>
<path d="M60.9002 29.8999C57.5502 31.6499 40.2002 38.7499 36.5002 40.6999C32.8002 42.5999 30.7502 42.5999 27.8502 41.1999C24.9502 39.7999 6.50018 32.3499 3.15018 30.7499C-0.199822 29.1499 -0.249823 28.0499 3.00018 26.7999C6.25018 25.4999 24.6002 18.2999 28.5002 16.9499C32.4002 15.5499 33.7002 15.4999 37.0002 16.6999C40.3002 17.8999 57.5502 24.7499 60.8002 25.9499C64.1502 27.1499 64.2502 28.1499 60.9002 29.8999Z" fill="#D82C20"/>
<path d="M60.8996 25.4998C57.5496 27.2498 40.1996 34.3498 36.4996 36.2998C32.7996 38.1998 30.7496 38.1998 27.8496 36.7998C24.9496 35.4498 6.49961 27.9998 3.14961 26.3998C1.49961 25.5998 0.599609 24.9498 0.599609 24.2998V17.9498C0.599609 17.9498 24.5996 12.6998 28.4996 11.3498C32.3996 9.94983 33.6996 9.89983 36.9996 11.0998C40.2996 12.2998 60.0496 15.8498 63.2996 17.0498V23.2998C63.3496 23.9498 62.5996 24.5998 60.8996 25.4998Z" fill="#A41E11"/>
<path d="M60.9002 19.1502C57.5502 20.9002 40.2002 28.0002 36.5002 29.9502C32.8002 31.8502 30.7502 31.8502 27.8502 30.4502C24.9502 29.0502 6.50018 21.6502 3.15018 20.0502C-0.199822 18.4502 -0.249823 17.3502 3.00018 16.1002C6.25018 14.8002 24.6002 7.60022 28.5002 6.25022C32.4002 4.85022 33.7002 4.80022 37.0002 6.00022C40.3002 7.20022 57.5502 14.0502 60.8002 15.2502C64.1502 16.4502 64.2502 17.4502 60.9002 19.1502Z" fill="#D82C20"/>
<path d="M40.1996 13.0502L34.7996 13.6502L33.5496 16.5502L31.5996 13.3002L25.3496 12.7502L29.9996 11.0502L28.5996 8.4502L32.9996 10.1502L37.0996 8.8002L35.9996 11.5002L40.1996 13.0502ZM33.2496 27.2502L23.0996 23.0502L37.6496 20.8502L33.2496 27.2502Z" fill="white"/>
<path d="M19.2002 20.7002C23.4804 20.7002 26.9502 19.3571 26.9502 17.7002C26.9502 16.0433 23.4804 14.7002 19.2002 14.7002C14.92 14.7002 11.4502 16.0433 11.4502 17.7002C11.4502 19.3571 14.92 20.7002 19.2002 20.7002Z" fill="white"/>
<path d="M46.6504 13.8501L55.2504 17.2501L46.6504 20.6501V13.8501Z" fill="#7A0C00"/>
<path d="M37.1504 17.6501L46.6504 13.8501V20.6501L45.7004 21.0501L37.1504 17.6501Z" fill="#AD2115"/>
</svg>
