<svg width="64" height="64" viewBox="0 0 64 64" fill="none" xmlns="http://www.w3.org/2000/svg">
<path d="M62.3832 9.75988L33.6622 61.1189C33.0687 62.1794 31.5452 62.1854 30.9437 61.1309L1.65269 9.76588C0.99619 8.61488 1.97869 7.22238 3.28319 7.45488L32.0352 12.5934C32.2187 12.6269 32.4067 12.6269 32.5902 12.5934L60.7402 7.46288C62.0392 7.22638 63.0277 8.60738 62.3832 9.75988Z" fill="url(#paint0_linear_143_70)"/>
<path d="M45.7299 0.715239L24.4769 4.87924C24.3073 4.91239 24.1534 5.00094 24.0396 5.13098C23.9257 5.26103 23.8583 5.42521 23.8479 5.59774L22.5394 27.6817C22.5324 27.8028 22.5536 27.9239 22.6015 28.0354C22.6494 28.1469 22.7225 28.2457 22.8152 28.324C22.9078 28.4023 23.0174 28.4579 23.1353 28.4865C23.2532 28.5151 23.3762 28.5159 23.4944 28.4887L29.4124 27.1212C29.5399 27.092 29.6726 27.0951 29.7985 27.1305C29.9244 27.1659 30.0394 27.2323 30.133 27.3237C30.2265 27.415 30.2957 27.5284 30.334 27.6534C30.3723 27.7785 30.3787 27.9111 30.3524 28.0392L28.5939 36.6487C28.567 36.7813 28.575 36.9185 28.6171 37.047C28.6591 37.1755 28.7339 37.2908 28.8339 37.3818C28.9339 37.4728 29.0559 37.5362 29.1878 37.5659C29.3197 37.5956 29.457 37.5906 29.5864 37.5512L33.2404 36.4397C33.8069 36.2677 34.3519 36.7657 34.2329 37.3457L31.4379 50.8692C31.2639 51.7152 32.3889 52.1762 32.8579 51.4512L33.1704 50.9672L50.4904 16.4022C50.7814 15.8222 50.2799 15.1622 49.6454 15.2852L43.5529 16.4612C43.4218 16.4867 43.2864 16.478 43.1596 16.4361C43.0328 16.3941 42.9189 16.3203 42.8289 16.2216C42.7389 16.123 42.6757 16.0028 42.6455 15.8727C42.6153 15.7426 42.6191 15.607 42.6564 15.4787L46.6314 1.69774C46.6688 1.56906 46.6724 1.43293 46.6418 1.30246C46.6113 1.17199 46.5477 1.05158 46.4571 0.952852C46.3665 0.854121 46.252 0.780393 46.1246 0.738774C45.9973 0.697155 45.8613 0.689049 45.7299 0.715239Z" fill="url(#paint1_linear_143_70)"/>
<defs>
<linearGradient id="paint0_linear_143_70" x1="0.93679" y1="5.61968" x2="36.6837" y2="54.1668" gradientUnits="userSpaceOnUse">
<stop stop-color="#41D1FF"/>
<stop offset="1" stop-color="#BD34FE"/>
</linearGradient>
<linearGradient id="paint1_linear_143_70" x1="30.3849" y1="1.84523" x2="36.8514" y2="46.2043" gradientUnits="userSpaceOnUse">
<stop stop-color="#FFEA83"/>
<stop offset="0.083" stop-color="#FFDD35"/>
<stop offset="1" stop-color="#FFA800"/>
</linearGradient>
</defs>
</svg>
