<svg width="64" height="64" viewBox="0 0 64 64" fill="none" xmlns="http://www.w3.org/2000/svg">
<g clip-path="url(#clip0_143_232)">
<mask id="mask0_143_232" style="mask-type:alpha" maskUnits="userSpaceOnUse" x="0" y="0" width="64" height="64">
<path fill-rule="evenodd" clip-rule="evenodd" d="M45.3837 63.5631C45.893 63.7616 46.4377 63.8533 46.9839 63.8323C47.5301 63.8113 48.0661 63.6781 48.5587 63.4411L61.7352 57.1006C62.4138 56.7739 62.9863 56.2623 63.387 55.6247C63.7877 54.987 64.0002 54.2492 64.0002 53.4961V10.5046C64.0003 9.75138 63.7878 9.01345 63.3871 8.37569C62.9865 7.73793 62.4138 7.22627 61.7352 6.89957L48.5587 0.560071C47.8141 0.201824 46.9766 0.0838722 46.1621 0.22254C45.3475 0.361208 44.5963 0.749638 44.0122 1.33407L18.7872 24.3471L7.80018 16.0066C7.30455 15.6303 6.69283 15.4393 6.07114 15.4669C5.44945 15.4945 4.85703 15.7388 4.39668 16.1576L0.872679 19.3631C0.598053 19.6128 0.378586 19.9172 0.228316 20.2567C0.0780465 20.5961 0.000283144 20.9632 7.71779e-07 21.3344C-0.000281601 21.7056 0.0769232 22.0728 0.226676 22.4125C0.37643 22.7522 0.595434 23.0569 0.869679 23.3071L10.3982 32.0001L0.870179 40.6936C0.596083 40.9438 0.37721 41.2485 0.22755 41.5881C0.0778898 41.9277 0.000735132 42.2948 0.00101748 42.666C0.00129982 43.0371 0.079013 43.4041 0.22919 43.7435C0.379366 44.0829 0.598703 44.3873 0.873179 44.6371L4.39718 47.8426C4.85743 48.2615 5.44982 48.506 6.07154 48.5336C6.69326 48.5613 7.30504 48.3704 7.80068 47.9941L18.7877 39.6541L44.0127 62.6666C44.4027 63.0573 44.8693 63.3626 45.3837 63.5631ZM48.0097 17.4716L28.8702 32.0001L48.0102 46.5291L48.0097 17.4716Z" fill="white"/>
</mask>
<g mask="url(#mask0_143_232)">
<path d="M61.7353 6.90992L48.5483 0.55992C47.8035 0.201435 46.9656 0.0833554 46.1507 0.222024C45.3358 0.360693 44.5842 0.749253 43.9998 1.33392L0.830827 40.6934C0.556526 40.9435 0.337468 41.2482 0.187675 41.5878C0.0378827 41.9274 -0.0393441 42.2946 -0.0390617 42.6658C-0.0387793 43.037 0.0390061 43.4041 0.189315 43.7435C0.339625 44.0829 0.559146 44.3872 0.833827 44.6369L4.35983 47.8424C4.82049 48.2613 5.4132 48.5057 6.03521 48.5334C6.65721 48.5611 7.26929 48.3702 7.76533 47.9939L59.7508 8.55642C61.4948 7.23342 63.9998 8.47742 63.9998 10.6664V10.5134C63.9998 9.76047 63.7873 9.02281 63.3867 8.38526C62.9861 7.74771 62.4137 7.23666 61.7353 6.90992Z" fill="#0065A9"/>
<g filter="url(#filter0_d_143_232)">
<path d="M61.7353 57.0905L48.5483 63.4395C47.8036 63.7981 46.9658 63.9164 46.1509 63.7779C45.336 63.6394 44.5843 63.251 43.9998 62.6665L0.830827 23.3065C0.556526 23.0564 0.337468 22.7518 0.187675 22.4121C0.0378827 22.0725 -0.0393441 21.7053 -0.0390617 21.3341C-0.0387793 20.9629 0.0390061 20.5958 0.189315 20.2564C0.339625 19.917 0.559146 19.6127 0.833827 19.363L4.35983 16.1575C4.82049 15.7386 5.4132 15.4942 6.03521 15.4665C6.65721 15.4388 7.26929 15.6297 7.76533 16.006L59.7508 55.443C61.4948 56.7665 63.9998 55.5225 63.9998 53.3335V53.4865C63.9998 54.2395 63.7873 54.9771 63.3867 55.6147C62.9861 56.2522 62.4137 56.7638 61.7353 57.0905Z" fill="#007ACC"/>
</g>
<g filter="url(#filter1_d_143_232)">
<path d="M48.549 63.441C47.804 63.7993 46.9661 63.9172 46.1511 63.7784C45.3362 63.6397 44.5845 63.2511 44 62.6665C45.476 64.1425 48 63.097 48 61.0095V2.99001C48 0.902514 45.476 -0.142986 44 1.33351C44.5845 0.748915 45.3362 0.360373 46.1511 0.221624C46.9661 0.082874 47.804 0.200773 48.549 0.559014L61.7335 6.90001C62.4124 7.2265 62.9854 7.73807 63.3863 8.37585C63.7873 9.01362 64 9.75166 64 10.505V53.496C64 54.2494 63.7873 54.9874 63.3863 55.6252C62.9854 56.263 62.4124 56.7745 61.7335 57.101L48.549 63.441Z" fill="#1F9CF0"/>
</g>
<path opacity="0.25" fill-rule="evenodd" clip-rule="evenodd" d="M45.3449 63.5631C45.8541 63.7616 46.3987 63.8532 46.9448 63.8322C47.4909 63.8112 48.0269 63.6781 48.5194 63.4411L61.6959 57.1006C62.3745 56.7739 62.9471 56.2622 63.3478 55.6245C63.7485 54.9867 63.961 54.2488 63.9609 53.4956V10.5046C63.961 9.75138 63.7485 9.01345 63.3478 8.37569C62.9471 7.73793 62.3745 7.22627 61.6959 6.89957L48.5194 0.560071C47.7748 0.201824 46.9373 0.0838722 46.1228 0.22254C45.3082 0.361208 44.5569 0.749638 43.9729 1.33407L18.7479 24.3471L7.76087 16.0071C7.26525 15.6308 6.65352 15.4398 6.03183 15.4674C5.41014 15.495 4.81773 15.7393 4.35737 16.1581L0.833374 19.3636C0.558817 19.6134 0.339411 19.9178 0.189185 20.2572C0.0389599 20.5966 -0.0387794 20.9637 -0.0390617 21.3349C-0.0393441 21.7061 0.0378367 22.0733 0.187546 22.413C0.337255 22.7526 0.556197 23.0573 0.830374 23.3076L10.3589 32.0001L0.830874 40.6931C0.556629 40.9433 0.337625 41.248 0.187871 41.5876C0.0381183 41.9273 -0.0390865 42.2945 -0.0388041 42.6657C-0.0385218 43.037 0.0392416 43.404 0.189511 43.7435C0.339781 44.0829 0.559249 44.3873 0.833874 44.6371L4.35787 47.8426C4.81817 48.2614 5.41055 48.5058 6.03224 48.5335C6.65393 48.5612 7.26569 48.3703 7.76137 47.9941L18.7489 39.6536L43.9739 62.6666C44.3638 63.0572 44.8306 63.3625 45.3449 63.5631ZM47.9709 17.4711L28.8309 32.0001L47.9709 46.5286V17.4711Z" fill="url(#paint0_linear_143_232)" style="mix-blend-mode:overlay"/>
</g>
</g>
<defs>
<filter id="filter0_d_143_232" x="-8.3724" y="7.13053" width="80.7057" height="65.0368" filterUnits="userSpaceOnUse" color-interpolation-filters="sRGB">
<feFlood flood-opacity="0" result="BackgroundImageFix"/>
<feColorMatrix in="SourceAlpha" type="matrix" values="0 0 0 0 0 0 0 0 0 0 0 0 0 0 0 0 0 0 127 0" result="hardAlpha"/>
<feOffset/>
<feGaussianBlur stdDeviation="4.16667"/>
<feColorMatrix type="matrix" values="0 0 0 0 0 0 0 0 0 0 0 0 0 0 0 0 0 0 0.25 0"/>
<feBlend mode="overlay" in2="BackgroundImageFix" result="effect1_dropShadow_143_232"/>
<feBlend mode="normal" in="SourceGraphic" in2="effect1_dropShadow_143_232" result="shape"/>
</filter>
<filter id="filter1_d_143_232" x="35.6667" y="-8.1683" width="36.6667" height="80.3366" filterUnits="userSpaceOnUse" color-interpolation-filters="sRGB">
<feFlood flood-opacity="0" result="BackgroundImageFix"/>
<feColorMatrix in="SourceAlpha" type="matrix" values="0 0 0 0 0 0 0 0 0 0 0 0 0 0 0 0 0 0 127 0" result="hardAlpha"/>
<feOffset/>
<feGaussianBlur stdDeviation="4.16667"/>
<feColorMatrix type="matrix" values="0 0 0 0 0 0 0 0 0 0 0 0 0 0 0 0 0 0 0.25 0"/>
<feBlend mode="overlay" in2="BackgroundImageFix" result="effect1_dropShadow_143_232"/>
<feBlend mode="normal" in="SourceGraphic" in2="effect1_dropShadow_143_232" result="shape"/>
</filter>
<linearGradient id="paint0_linear_143_232" x1="31.961" y1="0.165022" x2="31.961" y2="63.8351" gradientUnits="userSpaceOnUse">
<stop stop-color="white"/>
<stop offset="1" stop-color="white" stop-opacity="0"/>
</linearGradient>
<clipPath id="clip0_143_232">
<rect width="64" height="64" fill="white"/>
</clipPath>
</defs>
</svg>
