<svg width="64" height="64" viewBox="0 0 64 64" fill="none" xmlns="http://www.w3.org/2000/svg">
<g clip-path="url(#clip0_143_227)">
<path d="M32 0C25.671 0 19.4841 1.87677 14.2218 5.39297C8.95939 8.90918 4.85787 13.9069 2.43587 19.7541C0.013865 25.6014 -0.619842 32.0355 0.614885 38.2429C1.84961 44.4503 4.89732 50.1521 9.3726 54.6274C13.8479 59.1027 19.5497 62.1504 25.7571 63.3851C31.9645 64.6199 38.3986 63.9861 44.2459 61.5641C50.0931 59.1421 55.0908 55.0406 58.607 49.7782C62.1232 44.5159 64 38.329 64 32C64 23.5131 60.6286 15.3737 54.6274 9.37258C48.6263 3.37142 40.4869 0 32 0ZM34.3425 10.974C34.7373 11.0186 35.116 11.156 35.4475 11.375C35.783 11.597 36.2115 11.891 37.4605 14.472C37.9336 14.3025 38.4477 14.2846 38.9315 14.4205C39.1956 14.4924 39.4418 14.6187 39.6543 14.7913C39.8668 14.9638 40.0409 15.1788 40.1655 15.4225C41.4405 17.869 41.61 22.2295 41.0525 25.0325C40.558 27.514 39.5295 29.8582 38.0385 31.9025C39.3722 33.2897 40.3885 34.9502 41.017 36.769C41.6312 38.4898 41.8791 40.3198 41.745 42.142C42.2998 41.8764 42.8375 41.5765 43.355 41.244C44.934 40.2685 47.3185 38.797 50.1625 38.761C51.0252 38.7034 51.8777 38.975 52.548 39.5211C53.2184 40.0671 53.6569 40.847 53.775 41.7035C53.8828 42.514 53.6837 43.3354 53.2169 44.0067C52.7501 44.6779 52.0493 45.1504 51.252 45.3315C49.523 45.7495 48.7175 46.0745 46.395 47.5815C43.8877 49.1555 41.1886 50.401 38.364 51.2875C37.8182 51.7355 37.1744 52.0486 36.485 52.2015C34.5185 52.6815 27.7725 53.0425 27.241 53.0425H27.117C25.052 53.0425 23.882 52.4025 23.252 51.732C21.497 52.6095 19.226 52.247 17.5745 51.375C17.1791 51.1812 16.8337 50.8989 16.5652 50.5499C16.2966 50.201 16.1121 49.7948 16.026 49.363C15.9647 49.0112 15.9647 48.6513 16.026 48.2995C15.8738 48.1409 15.7372 47.9681 15.618 47.7835C14.6802 46.2232 14.2711 44.4019 14.4515 42.5905C14.6015 40.6655 15.9335 38.947 16.8005 38.0335C16.7282 35.9701 17.0902 33.9146 17.863 32C18.6934 30.2194 19.8933 28.636 21.383 27.355C20.5315 25.92 19.665 23.711 20.506 21.4605C21.11 19.8555 21.6055 18.9625 22.6945 18.5805C23.1699 18.4433 23.6111 18.2077 23.9895 17.889C25.5779 16.1635 27.7705 15.1171 30.111 14.9675C30.209 14.72 30.3225 14.451 30.4465 14.2135C31.2725 12.4585 32.1495 11.4735 33.1765 11.117C33.5485 10.9781 33.948 10.9291 34.3425 10.974ZM34.0635 12.8225C32.712 12.867 31.386 16.872 31.386 16.872C30.2673 16.7623 29.1384 16.9151 28.0891 17.3183C27.0397 17.7215 26.099 18.3639 25.3415 19.1945C24.7803 19.7356 24.0999 20.1372 23.355 20.367C23.143 20.439 22.885 20.428 22.245 22.157C21.2645 24.774 23.9175 27.737 23.9175 27.737C23.9175 27.737 20.7535 29.972 19.5815 32.754C18.799 34.6614 18.4892 36.7296 18.6785 38.7825C18.6785 38.7825 16.4285 40.733 16.2845 42.746C16.1502 44.1561 16.4701 45.5721 17.1975 46.7875C17.2543 46.9088 17.3348 47.0174 17.4343 47.107C17.5338 47.1966 17.6502 47.2653 17.7767 47.3091C17.9032 47.353 18.0373 47.371 18.1709 47.3621C18.3044 47.3532 18.4349 47.3177 18.5545 47.2575C18.5545 47.2575 17.058 49.001 18.4565 49.739C19.7315 50.4045 21.8785 50.7715 23.014 49.641C23.84 48.8155 24.005 46.9735 24.3095 46.22C24.3815 46.0445 24.6295 46.514 24.867 46.736C25.0859 46.9275 25.3206 47.1001 25.5685 47.252C25.5685 47.252 23.5565 48.119 24.382 50.096C24.6555 50.751 25.631 51.1685 27.226 51.1585C27.8195 51.1585 34.3275 50.787 36.0615 50.3685C36.586 50.2857 37.0638 50.019 37.4095 49.616C40.2255 48.7784 42.915 47.563 45.4045 46.003C47.8505 44.408 48.852 43.9735 50.8285 43.504C52.4595 43.117 52.351 40.589 50.1885 40.625C47.9485 40.651 45.9875 41.8065 44.3305 42.8385C41.234 44.7535 39.6855 44.63 39.6855 44.63L39.633 44.5425C39.4215 44.1965 40.6245 41.0945 39.277 37.399C37.822 33.358 35.51 32.3825 35.6955 32.0725C36.4855 30.736 38.4625 28.614 39.252 24.6605C39.722 22.2655 39.5975 18.3225 38.5345 16.258C38.338 15.876 36.5835 16.898 36.5835 16.898C36.5835 16.898 34.942 13.2385 34.483 12.9445C34.3592 12.8614 34.2126 12.8188 34.0635 12.8225Z" fill="#2C8EBB"/>
</g>
<defs>
<clipPath id="clip0_143_227">
<rect width="64" height="64" fill="white"/>
</clipPath>
</defs>
</svg>
